# xmcd CD database file
#
# Track frame offsets:
#	150
#	15898
#	32391
#	49327
#	65561
#	81212
#	95295
#	109650
#	123889
#	137703
#	151830
#	164179
#
# Disc length: 2377 seconds
#
# Revision: 1
# Processed by: cddbd v1.5.2PL0 Copyright (c) Steve Scherf et al.
# Submitted via: CDex 1.51
#
DISCID=9009470c
DTITLE=John Lee Hooker - Meet Me Around The Corner  -  John Lee Hooker
DYEAR=1935
DGENRE=Blues
TTITLE0=Black Man Blues
TTITLE1=Helpless Blues
TTITLE2=Goin' Mad Blues
TTITLE3=Low Down - Midnight Boogie
TTITLE4=Landing Blues
TTITLE5=Stomp Boogie
TTITLE6=Sally Mae
TTITLE7=Henry's Swing Club
TTITLE8=Alberta
TTITLE9=Boogie Chillen
TTITLE10=War Is Over
TTITLE11=Henry's Swing Club (John Lee Hooker - Bernard Besman)
EXTD=YEAR: 1935
EXTT0=
EXTT1=
EXTT2=
EXTT3=
EXTT4=
EXTT5=
EXTT6=
EXTT7=
EXTT8=
EXTT9=
EXTT10=
EXTT11=
PLAYORDER=
